<svg width="23" height="24" viewBox="0 0 23 24" fill="none" xmlns="http://www.w3.org/2000/svg">
<path d="M11.5 0.333252C10.0226 0.333252 8.55972 0.635019 7.19481 1.22132C5.8299 1.80763 4.58971 2.66699 3.54505 3.75034C1.43526 5.93826 0.25 8.90573 0.25 11.9999C0.25 17.1566 3.47875 21.5316 7.945 23.0833C8.5075 23.1766 8.6875 22.8149 8.6875 22.4999V20.5283C5.57125 21.2283 4.9075 18.9649 4.9075 18.9649C4.39 17.6116 3.65875 17.2499 3.65875 17.2499C2.635 16.5266 3.7375 16.5499 3.7375 16.5499C4.8625 16.6316 5.45875 17.7516 5.45875 17.7516C6.4375 19.5249 8.09125 18.9999 8.7325 18.7199C8.83375 17.9616 9.12625 17.4483 9.44125 17.1566C6.94375 16.8649 4.3225 15.8616 4.3225 11.4166C4.3225 10.1216 4.75 9.08325 5.48125 8.25492C5.36875 7.96325 4.975 6.74992 5.59375 5.17492C5.59375 5.17492 6.53875 4.85992 8.6875 6.36492C9.57625 6.10825 10.5437 5.97992 11.5 5.97992C12.4563 5.97992 13.4237 6.10825 14.3125 6.36492C16.4612 4.85992 17.4062 5.17492 17.4062 5.17492C18.025 6.74992 17.6313 7.96325 17.5188 8.25492C18.25 9.08325 18.6775 10.1216 18.6775 11.4166C18.6775 15.8733 16.045 16.8533 13.5363 17.1449C13.9413 17.5066 14.3125 18.2183 14.3125 19.3033V22.4999C14.3125 22.8149 14.4925 23.1883 15.0663 23.0833C19.5325 21.5199 22.75 17.1566 22.75 11.9999C22.75 10.4678 22.459 8.95074 21.8936 7.53528C21.3283 6.11981 20.4996 4.83369 19.455 3.75034C18.4103 2.66699 17.1701 1.80763 15.8052 1.22132C14.4403 0.635019 12.9774 0.333252 11.5 0.333252Z" fill="black"/>
</svg>
