<svg width="27" height="21" viewBox="0 0 27 21" fill="none" xmlns="http://www.w3.org/2000/svg">
<path fill-rule="evenodd" clip-rule="evenodd" d="M9.6822 12.3009L13.5027 14.9132L17.1855 12.3725L25.4407 20.517C25.2229 20.5881 24.9926 20.6241 24.7496 20.625H2.25045C1.95345 20.625 1.66995 20.5669 1.4094 20.463L9.6822 12.3009ZM27 5.6076V18.3746C27 18.708 26.9271 19.0239 26.7975 19.3087L18.7056 11.3249L27 5.6076ZM0 5.67915L8.1567 11.2574L0.1431 19.1657C0.0492247 18.9124 0.000781639 18.6446 0 18.3746L0 5.67915ZM24.7496 0.375C25.9916 0.375 27 1.3821 27 2.62545V3.41655L13.4973 12.7248L0 3.4935V2.62545C0 1.38345 1.0071 0.375 2.25045 0.375H24.7496Z" fill="black"/>
</svg>
