<svg width="84" height="28" viewBox="0 0 84 28" fill="none" xmlns="http://www.w3.org/2000/svg">
<path d="M13.9383 14.6034C10.5598 17.9549 7.26216 20.0412 4.19342 20.0412C1.78401 20.0412 0.464844 18.7624 0.464844 16.8782C0.464844 15.6129 1.02989 14.6573 2.01294 13.3381L10.2636 2.12652C10.3982 1.93799 10.3578 1.74946 10.1558 1.74946C10.0212 1.74946 9.8865 1.8168 9.6441 1.99186L6.38684 4.40127L5.44473 3.17637L8.52693 0.888153C9.14584 0.430295 9.69797 0.201904 10.4381 0.201904C11.4071 0.201904 12.04 0.793888 12.04 1.6692C12.04 2.10013 11.838 2.57092 11.4879 3.04224L6.7639 9.47541C12.3632 5.55884 14.6245 4.67006 16.3471 4.67006C17.9491 4.67006 19.0259 5.57177 19.0393 7.066C19.0528 8.50637 17.6259 10.9427 13.9383 14.6034ZM17.5047 7.066C17.5047 6.47402 17.0738 6.19122 16.3471 6.20469C14.5572 6.24509 11.9054 7.51039 3.89662 13.3656L3.23731 14.2538C2.53759 15.2094 1.99894 15.963 1.99894 16.8652C1.99894 17.9555 2.72559 18.5076 4.19289 18.5076C6.65617 18.5076 9.5633 16.7715 12.8475 13.5277C15.5936 10.808 17.5047 8.23704 17.5047 7.066Z" fill="black"/>
<path d="M34.9804 6.29719L34.8861 10.7793L29.9063 17.5761C26.0032 22.9061 22.1399 24.8711 18.7884 24.8711C15.8139 24.8711 14.5352 23.6193 14.5352 21.4658C14.5352 20.6718 14.7776 19.7027 15.2753 18.7606L16.6618 19.4199C16.2578 20.2139 16.0698 20.9546 16.0698 21.4658C16.0698 22.758 16.7156 23.3365 18.7884 23.3365C21.4671 23.3365 24.8725 21.8153 28.641 16.7008L30.5521 14.1163L27.3083 16.6065C23.6605 19.4059 21.9379 19.985 20.6861 19.985C19.0168 19.985 18.0477 18.9351 18.0612 17.6968C18.0747 16.6873 18.5191 16.0813 19.7036 14.4395L23.9972 8.49006L25.4645 6.49811C25.5992 6.30958 25.5184 6.12105 25.3433 6.12105C25.2086 6.12105 25.1009 6.17491 24.7513 6.43077L21.5883 8.77285L20.6597 7.54795L23.7419 5.2732C24.3613 4.81534 24.8994 4.57349 25.6396 4.57349C26.6086 4.57349 27.2415 5.16601 27.2415 6.04079C27.2415 6.47171 27.0395 6.9425 26.6894 7.41382L25.3702 9.20378L20.9554 15.3278C19.9998 16.6604 19.5958 17.1581 19.5958 17.6968C19.5958 18.1816 20.0133 18.4638 20.6861 18.4504C21.5609 18.4369 23.0282 17.9521 26.3797 15.3816L33.3655 10.0382L33.4463 6.33651C33.4463 6.16145 33.3924 6.10758 33.2847 6.10758C33.177 6.10758 33.0827 6.16145 32.8673 6.32304L29.5292 8.78632L28.614 7.56249L31.7905 5.20695C32.4094 4.74909 32.9346 4.57402 33.567 4.57402C34.4692 4.57402 35.0073 5.18001 34.9804 6.29719Z" fill="black"/>
<path d="M50.7069 5.8979C50.7069 6.32882 50.5184 6.79961 50.1817 7.27093L43.9635 15.9121L42.4827 17.904C42.3346 18.106 42.3885 18.308 42.5905 18.308C42.7386 18.308 42.9002 18.2407 43.169 18.0387L45.6996 16.1814L46.6148 17.3794L44.2323 19.1289C43.573 19.6137 42.9804 19.8421 42.2673 19.8421C41.2578 19.8421 40.7461 19.2501 40.7461 18.3883C40.7461 17.9439 40.9346 17.5 41.2982 17.0018L48.9838 6.35522C49.1184 6.16669 49.0646 5.96469 48.8626 5.96469C48.7144 5.96469 48.5528 6.03202 48.2841 6.23402L45.7534 8.09131L44.8383 6.89334L47.2207 5.14378C47.8397 4.68592 48.4726 4.4306 49.1588 4.4306C50.088 4.4306 50.7069 5.02312 50.7069 5.8979ZM53.5069 2.03466C53.5069 2.66704 53.0221 3.16529 52.4032 3.16529C51.7837 3.16529 51.2995 2.66704 51.2995 2.03466C51.2995 1.4152 51.7842 0.91748 52.4032 0.91748C53.0221 0.91748 53.5069 1.40228 53.5069 2.03466Z" fill="black"/>
<path d="M68.6226 6.60401C68.6092 7.66732 68.1648 8.40744 65.89 11.4498L62.6597 15.8377L61.0578 17.9643C60.977 18.072 60.9635 18.1124 60.9635 18.1528C60.9635 18.2067 61.0039 18.2336 61.0578 18.2336C61.1116 18.2336 61.1924 18.2067 61.2463 18.1663L64.3554 15.8511L65.2706 17.076L62.6592 19.0276C61.946 19.5528 61.5151 19.7677 60.8154 19.7677C59.9406 19.7677 59.375 19.1757 59.375 18.3677C59.375 17.8829 59.5635 17.3987 59.9271 16.9139L61.4348 14.9085L64.5035 10.736C66.684 7.80199 67.088 7.20946 67.088 6.60401C67.088 6.09229 66.6706 5.89083 66.0516 5.89083C64.4901 5.89083 62.4443 6.91374 53.8974 13.2397L52.0401 15.8377L50.4381 17.9643C50.3573 18.072 50.3438 18.1124 50.3438 18.1528C50.3438 18.2067 50.3842 18.2336 50.4381 18.2336C50.4919 18.2336 50.5727 18.2067 50.6266 18.1663L53.7358 15.8511L54.651 17.076L52.0401 19.0276C51.3269 19.5528 50.8959 19.7677 50.1962 19.7677C49.3214 19.7677 48.7559 19.1757 48.7559 18.3677C48.7559 17.8829 48.9444 17.3987 49.308 16.9139L50.8157 14.9085L55.5807 8.27277L57.048 6.28082C57.1827 6.09229 57.1019 5.90376 56.9403 5.90376C56.8191 5.90376 56.7113 5.95763 56.5228 6.09229L53.1712 8.55557L52.2426 7.33066L55.3248 5.05592C55.9437 4.59806 56.4824 4.3562 57.2225 4.3562C58.1916 4.3562 58.8245 4.94872 58.8245 5.8235C58.8245 6.25443 58.6225 6.72521 58.2729 7.19654L56.9807 8.95956L56.7383 9.29622C62.7147 4.97566 64.4911 4.3562 66.0527 4.3562C67.6132 4.3562 68.6361 5.32524 68.6226 6.60401Z" fill="black"/>
<path d="M83.1504 9.45935L83.0157 10.7516L70.283 12.6627C69.3139 14.157 68.8022 15.4088 68.8022 16.3509C68.8022 17.5489 69.4346 18.087 70.6999 18.087C72.7322 18.087 75.0474 16.6466 77.6453 14.3584L78.6413 15.5295C75.4514 18.3019 73.0285 19.6211 70.6999 19.6211C68.479 19.6211 67.2676 18.3154 67.2676 16.3504C67.2676 15.0043 67.9673 13.1874 69.6231 10.9261C72.6251 6.83447 76.7436 4.25 79.584 4.25C82.3834 4.25 83.5275 6.02703 83.1504 9.45935ZM71.5752 10.9126L81.6298 9.40494C81.8183 6.8878 81.5624 5.78409 79.584 5.78409C77.5112 5.78463 74.227 7.70925 71.5752 10.9126Z" fill="black"/>
<path d="M82.3214 19.2584C73.3657 25.8354 63.6575 25.5995 63.6575 25.5995C56.2094 25.6733 50.8321 21.8413 50.8321 21.8413C50.8321 21.8413 47.326 19.28 42.5513 22.011C38.4893 24.4064 35.7503 25.8144 33.5563 25.8511C31.8875 25.8791 30.9476 25.2219 30.9234 23.7821C30.9045 22.6514 31.4932 21.6458 32.584 20.0788L35.0936 16.6147L43.0032 5.71769L44.3224 3.92774C44.6726 3.45641 44.8746 2.98563 44.8746 2.55471C44.8746 1.67993 44.2421 1.0874 43.2725 1.0874C42.5324 1.0874 41.9938 1.3298 41.3749 1.78712L40.4032 2.54878L41.3318 3.77368L42.4786 2.87844C42.721 2.70338 42.8556 2.63604 42.9903 2.63604C43.1923 2.63604 43.2327 2.82458 43.098 3.0131L41.6308 5.00505L33.846 15.7227L31.3171 19.1852C29.9764 21.106 29.3504 22.3282 29.3757 23.8085C29.4118 25.9615 30.891 27.4444 33.5827 27.3992C35.9043 27.3598 39.1045 26.2217 43.3846 23.314C43.4126 23.2951 43.4412 23.2774 43.4703 23.2607C43.9152 23.007 47.2877 21.1895 49.7682 22.9423C49.7682 22.9423 55.9671 26.8659 63.4727 26.853C63.4727 26.853 73.8909 27.167 83.2376 20.1284L82.3214 19.2584Z" fill="black"/>
</svg>
